<svg width="21" height="22" viewBox="0 0 21 22" fill="none" xmlns="http://www.w3.org/2000/svg">
<path d="M0.1875 11.375C0.09375 11.2812 0.046875 11.1406 0.046875 10.9531C0.046875 10.8125 0.09375 10.6719 0.1875 10.5781L10.125 0.6875C10.2188 0.59375 10.3125 0.5 10.5 0.5C10.6406 0.5 10.7812 0.59375 10.875 0.6875L20.8125 10.5781C20.9062 10.6719 20.9531 10.8125 20.9531 10.9531C20.9531 11.1406 20.9062 11.2812 20.8125 11.375L20.4375 11.7031C20.3438 11.7969 20.2031 11.8438 20.0625 11.8438C19.875 11.8438 19.7344 11.7969 19.6406 11.7031L11.2969 3.3125V20.9375C11.2969 21.125 11.2031 21.2656 11.1094 21.3594C11.0156 21.4531 10.875 21.5 10.7344 21.5H10.2656C10.0781 21.5 9.9375 21.4531 9.84375 21.3594C9.75 21.2656 9.70312 21.125 9.70312 20.9375V3.3125L1.35938 11.7031C1.21875 11.7969 1.07812 11.8438 0.9375 11.8438C0.75 11.8438 0.65625 11.7969 0.5625 11.7031L0.1875 11.375Z" fill="white"/>
</svg>
