<svg width="18" height="14" viewBox="0 0 18 14" fill="none" xmlns="http://www.w3.org/2000/svg">
<path d="M0 14H0.632812V0.5H0V14ZM0.949219 14H1.26562V0.5H0.949219V14ZM1.89844 14H2.21484V0.5H1.89844V14ZM3.48047 14H3.79688V0.5H3.48047V14ZM4.74609 14H5.37891V0.5H4.74609V14ZM6.32812 14H6.64453V0.5H6.32812V14ZM6.96094 14H7.27734V0.5H6.96094V14ZM7.59375 14H7.91016V0.5H7.59375V14ZM8.82422 14H9.45703V0.5H8.82422V14ZM10.4062 14H11.0391V0.5H10.4062V14ZM11.6719 14H12.3047V0.5H11.6719V14ZM12.9375 14H13.5703V0.5H12.9375V14ZM13.8867 14H14.5195V0.5H13.8867V14ZM15.4688 14H16.418V0.5H15.4688V14ZM16.7344 14H17.0508V0.5H16.7344V14ZM17.3672 14H18V0.5H17.3672V14Z" fill="white"/>
</svg>
