<svg width="21" height="17" viewBox="0 0 21 17" fill="none" xmlns="http://www.w3.org/2000/svg">
<path d="M4.41797 3.89062C5.63672 2.67187 7.10156 2.0625 8.8125 2.0625C10.5234 2.0625 11.9766 2.67187 13.1719 3.89062C14.3906 5.08594 15 6.53906 15 8.25C15 9.9375 14.3906 11.3906 13.1719 12.6094C11.9766 13.8281 10.5234 14.4375 8.8125 14.4375C7.10156 14.4375 5.63672 13.8281 4.41797 12.6094C3.22266 11.3906 2.625 9.9375 2.625 8.25C2.625 6.53906 3.22266 5.08594 4.41797 3.89062ZM7.40625 11.9062V4.59375C6.65625 4.875 6.04688 5.35547 5.57812 6.03516C5.10938 6.69141 4.875 7.42969 4.875 8.25C4.875 9.07031 5.10938 9.80859 5.57812 10.4648C6.04688 11.1211 6.65625 11.6016 7.40625 11.9062ZM10.2188 11.9062C10.9453 11.6016 11.543 11.1211 12.0117 10.4648C12.4805 9.80859 12.7148 9.07031 12.7148 8.25C12.7148 7.92188 12.668 7.60547 12.5742 7.30078C12.5039 6.97266 12.3984 6.67969 12.2578 6.42188C12.1172 6.14062 11.9414 5.88281 11.7305 5.64844C11.5195 5.41406 11.2852 5.20312 11.0273 5.01562C10.7695 4.82813 10.5 4.6875 10.2188 4.59375V11.9062ZM18.9375 0.375C19.4062 0.375 19.8047 0.539063 20.1328 0.867188C20.4609 1.19531 20.625 1.59375 20.625 2.0625V14.4375C20.625 14.9062 20.4609 15.3047 20.1328 15.6328C19.8047 15.9609 19.4062 16.125 18.9375 16.125H2.0625C1.59375 16.125 1.19531 15.9609 0.867188 15.6328C0.539062 15.3047 0.375 14.9062 0.375 14.4375V2.0625C0.375 1.59375 0.539062 1.19531 0.867188 0.867188C1.19531 0.539063 1.59375 0.375 2.0625 0.375H18.9375ZM11.9766 15C13.8281 15 15.457 14.3438 16.8633 13.0312C18.293 11.6953 19.0078 10.125 19.0078 8.32031C19.0078 6.35156 18.3047 4.72266 16.8984 3.43359C15.5156 2.14453 13.875 1.5 11.9766 1.5H8.77734C7.53516 1.5 6.39844 1.78125 5.36719 2.34375C4.33594 2.90625 3.51562 3.71484 2.90625 4.76953C2.29688 5.82422 1.99219 7.00781 1.99219 8.32031C1.99219 10.1484 2.66016 11.7188 3.99609 13.0312C5.33203 14.3438 6.92578 15 8.77734 15H11.9766Z" fill="white"/>
</svg>
