<svg width="18" height="33" viewBox="0 0 18 33" fill="none" xmlns="http://www.w3.org/2000/svg">
<path d="M1.26562 1.03125C1.40625 0.890625 1.54688 0.820312 1.82812 0.820312C2.03906 0.820312 2.25 0.890625 2.39062 1.03125L17.2969 15.9375C17.4375 16.0781 17.5078 16.2891 17.5078 16.5C17.5078 16.7812 17.4375 16.9219 17.2969 17.0625L2.39062 31.9688C2.25 32.1094 2.03906 32.1797 1.82812 32.1797C1.54688 32.1797 1.40625 32.1094 1.26562 31.9688L0.703125 31.4062C0.5625 31.2656 0.492188 31.125 0.492188 30.8438C0.492188 30.6328 0.5625 30.4219 0.703125 30.2109L14.4844 16.5L0.703125 2.78906C0.5625 2.64844 0.492188 2.4375 0.492188 2.15625C0.492188 1.94531 0.5625 1.73438 0.703125 1.59375L1.26562 1.03125Z" fill="#73A8A0"/>
</svg>
