<svg width="205" height="99" viewBox="0 0 205 99" fill="none" xmlns="http://www.w3.org/2000/svg">
<path d="M204.246 61.2106C203.575 62.0811 202.968 62.9838 202.201 63.7576C200.443 65.5953 198.494 67.3685 195.745 66.5947C192.773 65.7242 192.038 63.1128 191.814 60.3078C191.495 56.1166 191.207 51.8931 190.92 47.7018C190.824 46.0898 190.664 44.4133 188.842 43.8975C187.212 43.4139 186.286 44.768 185.487 45.8964C183.186 49.2171 180.98 52.6346 178.743 55.9876C177.625 57.6964 176.442 59.3084 174.621 60.3401C171.553 62.0811 169.22 61.3718 167.973 58.0188C167.047 55.504 166.791 52.8603 166.791 50.1844C166.791 39.0937 166.759 28.003 166.663 16.9123C166.631 14.8811 166.439 12.85 166.12 10.8511C165.257 5.40245 164.426 5.0478 159.792 8.14288C159.153 8.56201 158.546 9.36802 157.811 8.78769C156.948 8.0784 157.171 7.01447 157.811 6.27294C159.984 3.69371 161.869 0.340706 165.96 1.04999C169.603 1.6948 170.019 5.01556 170.402 7.94944C171.585 17.1379 170.722 26.3587 170.946 35.5472C171.073 40.8669 171.009 46.1543 171.105 51.474C171.137 53.215 171.489 55.1494 173.247 55.8264C175.356 56.6324 176.219 54.569 177.145 53.2794C179.67 49.733 182.035 46.0576 184.496 42.4467C186.126 40.0286 188.011 37.7718 191.303 38.8035C194.563 39.8029 194.914 42.8013 195.074 45.6707C195.298 49.2494 195.074 52.8925 195.585 56.4067C196.416 62.1455 198.078 62.6614 202.616 59.1149C203.096 58.7603 203.703 58.5991 204.246 58.3412C204.246 59.3406 204.246 60.2756 204.246 61.2106Z" fill="white"/>
<path d="M46.8509 91.3876C45.6046 95.2887 43.3675 97.481 40.5551 98.5772C37.0397 99.9635 34.8346 97.7712 34.1634 94.4504C33.5243 91.2586 33.2047 87.9701 33.1727 84.7138C33.0449 74.268 33.1408 63.7898 33.1088 53.3439C33.1088 51.1516 32.981 48.9592 32.7573 46.7991C32.6294 45.5095 32.1181 44.2844 30.7758 43.8975C29.3697 43.4784 28.4109 44.4456 27.6759 45.4773C25.7584 48.3144 23.9367 51.2161 22.0192 54.0532C20.9007 55.7297 19.8461 57.4707 18.5038 58.9538C17.0337 60.598 15.1801 61.8876 12.7513 61.0816C10.3864 60.3078 9.39565 58.3089 9.17194 56.0521C8.85236 53.1182 8.8204 50.1521 8.72452 47.186C8.46886 37.8041 7.5101 37.1592 -0.000128514 41.3183C-0.0320869 37.7073 3.16376 33.4194 6.45548 33.1937C10.5142 32.9035 11.5049 35.8374 12.24 39.1259C13.1348 43.2849 12.7513 47.5407 13.0389 51.7319C13.1667 53.4729 13.2946 55.4073 15.244 55.9876C17.0657 56.5357 17.9925 54.8592 18.8553 53.6019C21.1244 50.2489 23.2656 46.7991 25.5347 43.4784C27.3882 40.7379 29.4016 37.6751 33.3006 38.9002C36.9119 40.0286 37.1036 43.5751 37.1356 46.7024C37.2634 58.0833 37.2314 69.4964 37.2634 80.8772C37.2634 82.4248 37.2314 84.0045 37.2954 85.5521C37.551 93.7089 38.9892 94.7084 46.8509 91.3876Z" fill="white"/>
<path d="M71.2991 41.5437C71.6507 39.9962 72.6734 39.3191 73.8878 38.9C75.8692 38.1907 77.2115 39.0935 78.0424 40.8344C79.4805 43.865 79.8001 47.1213 79.832 50.4098C79.864 52.5377 79.4166 55.2781 82.1011 55.9552C84.5299 56.6 85.3928 54.053 86.4794 52.441C88.7484 49.088 90.7618 45.5415 93.0948 42.253C94.6288 40.0607 96.6102 38.0618 99.6463 38.7388C103.066 39.5126 103.417 42.5754 103.801 45.3481C104.12 47.6694 103.961 50.0552 104.312 52.3443C104.536 53.7951 104.824 55.6328 106.741 55.9552C108.403 56.2454 109.234 54.859 110.001 53.7306C112.334 50.2486 114.539 46.6377 116.872 43.1558C118.63 40.512 120.579 37.7716 124.286 38.8033C128.089 39.835 128.185 43.2202 128.249 46.412C128.281 48.6044 128.281 50.7967 128.345 52.9891C128.377 54.4399 128.728 55.7617 129.815 56.7934C130.582 57.535 132.691 56.9546 132.148 58.9858C131.828 60.1142 130.71 60.5656 129.623 60.8557C128.057 61.2749 126.843 60.5011 126.076 59.2437C124.318 56.471 124.766 53.2148 124.19 50.1842C123.775 48.0241 125.021 44.8967 122.177 44.0262C118.981 43.0268 118.342 46.4765 117 48.3787C114.635 51.6672 112.589 55.1492 110.161 58.4055C108.754 60.3076 106.837 61.9197 104.216 61.1781C101.564 60.4688 100.861 58.212 100.605 55.7295C100.381 53.5694 100.094 51.4093 99.87 49.217C99.6463 47.218 99.9019 44.6711 97.6649 43.994C95.0443 43.188 94.0535 45.8317 92.8711 47.5727C91.2412 50.023 89.835 52.6667 88.2052 55.1169C87.1825 56.6645 86.032 58.212 84.6897 59.4372C81.0145 62.6934 77.7867 61.6617 76.3805 56.9224C75.7094 54.6333 75.8692 52.2798 75.6455 49.9585C75.3259 47.0891 77.3393 42.8978 71.9703 42.4787C71.6827 42.5109 71.4589 41.8339 71.2991 41.5437Z" fill="white"/>
<path d="M159.888 44.4136C160.048 47.8633 157.938 49.5721 155.094 50.4748C152.761 51.2163 150.3 51.6354 147.903 52.248C146.242 52.6671 144.931 53.6021 145.251 55.5043C145.602 57.5677 147.264 58.3414 149.118 57.8256C150.876 57.342 152.505 56.3748 154.199 55.601C154.87 55.2786 155.542 54.5693 156.277 55.2786C157.012 55.9879 156.436 56.7294 156.053 57.3742C153.912 60.9852 146.082 62.6294 142.63 60.2114C138.955 57.6322 139.275 52.4092 143.365 50.1846C145.986 48.7661 148.926 48.3469 151.834 47.7988C153.816 47.412 155.637 46.477 154.934 44.0912C154.295 41.9633 152.282 41.512 150.332 42.2535C148.607 42.8983 147.041 43.9622 145.443 44.8327C144.867 45.1229 144.26 45.4453 143.813 44.8005C143.589 44.4781 143.557 43.8978 143.653 43.5109C144.196 40.9639 150.045 38.1267 153.976 38.5459C157.395 38.9005 159.632 40.6415 159.888 44.4136Z" fill="white"/>
<path d="M57.1735 38.4492C60.4652 38.7071 63.2456 39.8356 63.8528 43.6077C64.4281 47.1219 62.4467 49.2497 59.3787 50.3459C57.0457 51.1519 54.6169 51.6033 52.188 52.1836C50.3344 52.635 48.8324 53.5377 49.2798 55.6656C49.7592 58.0191 51.7086 58.3738 53.6581 57.729C55.256 57.2131 56.6941 56.2459 58.2282 55.5044C58.8993 55.182 59.5704 54.4404 60.2735 55.2142C60.9446 55.9235 60.4333 56.665 60.0498 57.3421C57.7807 61.1787 49.6952 62.694 46.2437 59.9858C42.8242 57.3098 43.4634 51.8612 47.6499 50.0235C50.1427 48.9273 52.987 48.5082 55.7034 47.8957C57.7488 47.412 59.3787 46.4771 58.7075 44.1235C58.0684 41.8345 56.1189 41.7055 54.1375 42.3503C52.955 42.7372 51.8684 43.3175 50.7179 43.8011C49.7272 44.188 48.6406 46.0257 47.6819 44.317C46.9788 43.0918 48.4169 42.0601 49.3437 41.2864C51.6128 39.3842 54.2333 38.5459 57.1735 38.4492Z" fill="white"/>
</svg>
