<svg width="21" height="17" viewBox="0 0 21 17" fill="none" xmlns="http://www.w3.org/2000/svg">
<path d="M11.8359 5.15625C11.8359 5.48437 11.6953 5.69531 11.4141 5.78906C11.6719 5.88281 11.8008 6.10547 11.8008 6.45703V6.91406H11.2383C11.2383 6.86719 11.2383 6.79688 11.2383 6.70312C11.2383 6.58594 11.2383 6.50391 11.2383 6.45703C11.2383 6.41016 11.2266 6.36328 11.2031 6.31641C11.1797 6.24609 11.1445 6.19922 11.0977 6.17578C11.0742 6.12891 11.0273 6.09375 10.957 6.07031C10.8867 6.04688 10.8047 6.03516 10.7109 6.03516H10.0781V6.91406H9.51562V4.48828H10.8867C11.5195 4.48828 11.8359 4.71094 11.8359 5.15625ZM10.8164 5.54297C11.0742 5.54297 11.2031 5.44922 11.2031 5.26172C11.2031 5.09766 11.0742 5.01562 10.8164 5.01562H10.0781V5.54297H10.8164ZM10.2188 8.70703C10.875 8.70703 11.2031 8.96484 11.2031 9.48047C11.2031 9.62109 11.1797 9.75 11.1328 9.86719C11.1094 9.96094 11.0508 10.043 10.957 10.1133C10.8867 10.1602 10.8047 10.207 10.7109 10.2539C10.6406 10.2773 10.5352 10.3008 10.3945 10.3242C10.2773 10.3242 10.1836 10.3242 10.1133 10.3242C10.043 10.3242 9.92578 10.3242 9.76172 10.3242C9.62109 10.3242 9.52734 10.3242 9.48047 10.3242V11.1328H8.32031L7.61719 10.3242L6.87891 11.1328H4.55859V8.70703H6.91406L7.61719 9.48047L8.35547 8.70703H10.2188ZM6.5625 10.6055L7.23047 9.90234L6.59766 9.19922H5.15625V9.62109H6.42188V10.1484H5.15625V10.6055H6.5625ZM8.88281 10.9219V8.95312L8.00391 9.90234L8.88281 10.9219ZM10.2188 9.79688C10.4531 9.79688 10.5703 9.69141 10.5703 9.48047C10.5703 9.29297 10.4531 9.19922 10.2188 9.19922H9.48047V9.79688H10.2188ZM9.09375 5.01562H7.72266V5.4375H9.05859V5.92969H7.72266V6.42188H9.09375V6.91406H7.16016V4.48828H9.09375V5.01562ZM13.8047 9.33984C13.8047 9.66797 13.6758 9.89062 13.418 10.0078C13.6523 10.1016 13.7695 10.3125 13.7695 10.6406V11.1328H13.207V10.7109C13.207 10.5938 13.1836 10.5 13.1367 10.4297C13.1133 10.3594 13.0664 10.3125 12.9961 10.2891C12.9258 10.2656 12.8203 10.2539 12.6797 10.2539H12.082L12.0469 11.1328H11.4844V8.70703H12.8555C13.4883 8.70703 13.8047 8.91797 13.8047 9.33984ZM12.7852 9.72656C13.043 9.72656 13.1719 9.63281 13.1719 9.44531C13.1719 9.28125 13.043 9.19922 12.7852 9.19922H12.082V9.72656H12.7852ZM6.70312 6.91406H6.14062V5.01562L5.29688 6.91406H4.76953L3.92578 5.01562V6.91406H2.73047L2.51953 6.38672H1.28906L1.07812 6.91406H0.445312L1.5 4.48828H2.34375L3.32812 6.80859V4.48828H4.27734L5.05078 6.14062L5.75391 4.48828H6.70312V6.91406ZM1.5 5.89453H2.30859L1.88672 4.91016L1.5 5.89453ZM18.3047 11.4844C18.4453 11.4844 18.6562 11.4844 18.9375 11.4844C19.2188 11.4844 19.418 11.4844 19.5352 11.4844C19.6523 11.4844 19.793 11.4844 19.957 11.4844C20.1445 11.4609 20.2852 11.4375 20.3789 11.4141C20.4727 11.3672 20.5664 11.3203 20.6602 11.2734V14.4375C20.6602 14.9062 20.4961 15.3047 20.168 15.6328C19.8398 15.9609 19.4414 16.125 18.9727 16.125H2.09766C1.62891 16.125 1.23047 15.9609 0.902344 15.6328C0.574219 15.3047 0.410156 14.9062 0.410156 14.4375V7.26562H1.35938C1.40625 7.125 1.47656 6.94922 1.57031 6.73828H2.23828C2.33203 6.94922 2.41406 7.125 2.48438 7.26562H4.34766V6.87891C4.37109 6.92578 4.42969 7.05469 4.52344 7.26562H5.54297C5.56641 7.21875 5.58984 7.18359 5.61328 7.16016C5.63672 7.11328 5.64844 7.06641 5.64844 7.01953C5.67188 6.97266 5.69531 6.92578 5.71875 6.87891V7.26562H10.5V6.38672C10.6875 6.38672 10.793 6.38672 10.8164 6.38672C10.8164 6.64453 10.8281 6.9375 10.8516 7.26562H13.1719V6.94922C13.4297 7.16016 13.7812 7.26562 14.2266 7.26562H15.1758C15.2227 7.125 15.293 6.94922 15.3867 6.73828H16.0547C16.125 6.90234 16.1602 6.99609 16.1602 7.01953C16.1836 7.01953 16.1953 7.04297 16.1953 7.08984C16.2188 7.13672 16.2539 7.19531 16.3008 7.26562H18.1289V6.49219C18.293 6.77344 18.3984 6.96094 18.4453 7.05469C18.5156 7.125 18.5742 7.19531 18.6211 7.26562H20.0625V4.03125H18.6562V4.69922C18.5391 4.48828 18.4102 4.26563 18.2695 4.03125H16.7578V4.76953C16.6875 4.58203 16.582 4.33594 16.4414 4.03125H15.3164C15.2461 4.03125 15.2109 4.03125 15.2109 4.03125H14.2617C13.8164 4.03125 13.4531 4.13672 13.1719 4.34766V4.03125H11.7656V4.20703C11.7188 4.18359 11.6719 4.17188 11.625 4.17188C11.6016 4.14844 11.5547 4.13672 11.4844 4.13672C11.4375 4.11328 11.3906 4.10156 11.3438 4.10156C11.3203 4.07812 11.2617 4.06641 11.168 4.06641C11.0977 4.04297 11.0273 4.03125 10.957 4.03125C10.9102 4.03125 10.8164 4.03125 10.6758 4.03125C10.5586 4.03125 10.4531 4.03125 10.3594 4.03125C10.2891 4.03125 10.1602 4.03125 9.97266 4.03125C9.78516 4.03125 9.63281 4.03125 9.51562 4.03125H9.09375H5.47266C5.35547 4.3125 5.21484 4.66406 5.05078 5.08594C5.00391 5.01562 4.91016 4.83984 4.76953 4.55859C4.65234 4.27734 4.58203 4.10156 4.55859 4.03125H2.94141V4.76953C2.82422 4.53516 2.74219 4.38281 2.69531 4.3125C2.67188 4.21875 2.64844 4.125 2.625 4.03125H1.21875C1.17188 4.125 1.05469 4.39453 0.867188 4.83984C0.679688 5.28516 0.527344 5.64844 0.410156 5.92969V2.0625C0.410156 1.59375 0.574219 1.19531 0.902344 0.867188C1.23047 0.539063 1.62891 0.375 2.09766 0.375H18.9727C19.4414 0.375 19.8398 0.539063 20.168 0.867188C20.4961 1.19531 20.6602 1.59375 20.6602 2.0625V8.21484C20.5664 8.21484 20.4492 8.21484 20.3086 8.21484C19.4883 8.21484 18.9727 8.27344 18.7617 8.39062V8.21484C18.5508 8.21484 18.3164 8.21484 18.0586 8.21484C17.8008 8.21484 17.625 8.21484 17.5312 8.21484C17.4375 8.21484 17.3203 8.22656 17.1797 8.25C17.0391 8.25 16.9336 8.26172 16.8633 8.28516C16.8164 8.28516 16.7461 8.29688 16.6523 8.32031C16.582 8.34375 16.5234 8.37891 16.4766 8.42578V8.21484H13.6992V8.39062C13.6523 8.36719 13.6055 8.35547 13.5586 8.35547C13.5117 8.33203 13.4531 8.30859 13.3828 8.28516C13.3359 8.26172 13.2656 8.25 13.1719 8.25C13.1016 8.25 13.0312 8.25 12.9609 8.25C12.8906 8.22656 12.7734 8.21484 12.6094 8.21484C12.4688 8.21484 12.3398 8.21484 12.2227 8.21484C12.1055 8.21484 11.9297 8.21484 11.6953 8.21484C11.4609 8.21484 11.25 8.21484 11.0625 8.21484V8.42578C10.8281 8.28516 10.5352 8.21484 10.1836 8.21484H8.14453C8.12109 8.26172 8.08594 8.32031 8.03906 8.39062C7.99219 8.4375 7.93359 8.48438 7.86328 8.53125C7.81641 8.57812 7.76953 8.63672 7.72266 8.70703C7.67578 8.77734 7.64062 8.82422 7.61719 8.84766C7.52344 8.73047 7.44141 8.63672 7.37109 8.56641C7.30078 8.49609 7.25391 8.44922 7.23047 8.42578C7.20703 8.40234 7.18359 8.37891 7.16016 8.35547C7.13672 8.30859 7.10156 8.26172 7.05469 8.21484H4.13672V11.4844H7.01953C7.16016 11.3203 7.34766 11.1094 7.58203 10.8516C7.74609 11.0391 7.86328 11.1797 7.93359 11.2734C8.00391 11.3438 8.07422 11.4141 8.14453 11.4844H9.83203C9.83203 11.2969 9.83203 11.1562 9.83203 11.0625C9.85547 10.9688 9.86719 10.8398 9.86719 10.6758C10.4062 10.6758 10.8047 10.5938 11.0625 10.4297C11.0625 10.6172 11.0625 10.8047 11.0625 10.9922C11.0625 11.1797 11.0625 11.3438 11.0625 11.4844H12.4336C12.4336 11.25 12.4336 11.0977 12.4336 11.0273C12.4336 10.9336 12.4336 10.7812 12.4336 10.5703C12.6211 10.5703 12.7383 10.5703 12.7852 10.5703C12.7852 10.5938 12.7852 10.6406 12.7852 10.7109C12.7852 10.9219 12.7852 11.1797 12.7852 11.4844C16.2305 11.4844 18.0234 11.4492 18.1641 11.3789C18.1875 11.3789 18.2344 11.3555 18.3047 11.3086V11.4844ZM19.5703 9.19922C19.3594 9.19922 19.2539 9.28125 19.2539 9.44531C19.2539 9.5625 19.3359 9.63281 19.5 9.65625C19.6875 9.65625 19.8984 9.66797 20.1328 9.69141C20.3672 9.69141 20.5312 9.76172 20.625 9.90234V10.8164C20.4844 11.0273 20.2148 11.1328 19.8164 11.1328H18.6914L18.7266 10.6055H19.8516C20.0391 10.6055 20.1328 10.5352 20.1328 10.3945C20.1328 10.2773 20.0508 10.207 19.8867 10.1836C19.7461 10.1602 19.582 10.1484 19.3945 10.1484C19.207 10.1484 19.0312 10.0898 18.8672 9.97266C18.7031 9.85547 18.6211 9.66797 18.6211 9.41016C18.6211 8.94141 18.9023 8.70703 19.4648 8.70703H20.625V9.19922H19.5703ZM17.5664 10.6055C17.7773 10.6055 17.8828 10.5352 17.8828 10.3945C17.8828 10.2773 17.8008 10.207 17.6367 10.1836C17.4727 10.1367 17.2969 10.125 17.1094 10.1484C16.9219 10.1484 16.7461 10.0898 16.582 9.97266C16.4414 9.85547 16.3711 9.66797 16.3711 9.41016C16.3711 8.91797 16.6523 8.67188 17.2148 8.67188H18.375V9.19922H17.2852C17.0742 9.19922 16.9688 9.28125 16.9688 9.44531C16.9688 9.53906 17.0508 9.59766 17.2148 9.62109C17.3789 9.64453 17.5547 9.65625 17.7422 9.65625C17.9297 9.63281 18.0938 9.67969 18.2344 9.79688C18.3984 9.91406 18.4805 10.1016 18.4805 10.3594C18.4805 10.875 18.1758 11.1328 17.5664 11.1328H16.4414V10.6055H17.5664ZM16.0898 9.19922H14.7188V9.62109H16.0547V10.1484H14.7188V10.6055L16.0898 10.6406V11.1328H14.1211V8.70703H16.0898V9.19922ZM14.0859 5.40234C14.1094 5.37891 14.2031 5.36719 14.3672 5.36719C14.3672 5.36719 14.3789 5.36719 14.4023 5.36719C14.4258 5.36719 14.4492 5.36719 14.4727 5.36719L14.1914 5.96484C14.1445 5.96484 14.1094 5.95313 14.0859 5.92969C14.0625 5.90625 14.0508 5.82422 14.0508 5.68359C14.0508 5.51953 14.0625 5.42578 14.0859 5.40234ZM14.2617 4.48828H14.8242V5.01562C14.7773 5.01562 14.6953 5.01562 14.5781 5.01562C14.4844 5.01562 14.4141 5.01562 14.3672 5.01562C14.3203 5.01562 14.25 5.01562 14.1562 5.01562C14.0859 5.01562 14.0273 5.02734 13.9805 5.05078C13.957 5.07422 13.9102 5.10938 13.8398 5.15625C13.793 5.17969 13.7578 5.21484 13.7344 5.26172C13.7109 5.30859 13.6875 5.37891 13.6641 5.47266C13.6641 5.54297 13.6641 5.625 13.6641 5.71875C13.6641 6.1875 13.8516 6.42188 14.2266 6.42188H14.4727L15.3164 4.48828H16.1602L17.1445 6.80859V4.48828H18.0586L19.0781 6.21094V4.48828H19.6758V6.91406H18.832L17.7422 5.08594V6.91406H16.5469L16.3008 6.38672H15.1055L14.8945 6.91406H14.2266C13.4531 6.91406 13.0664 6.51562 13.0664 5.71875C13.0664 4.89844 13.4648 4.48828 14.2617 4.48828ZM15.7383 4.91016L15.3164 5.89453H16.125L15.7383 4.91016ZM12.1875 4.48828H12.7852V6.91406H12.1875V4.48828Z" fill="white"/>
</svg>
