<svg width="21" height="12" viewBox="0 0 21 12" fill="none" xmlns="http://www.w3.org/2000/svg">
<path d="M15.9375 11.1562C15.75 11.3438 15.5625 11.3906 15.3281 11.2969C15.0938 11.2031 15 11.0625 15 10.7812V7.40625H0.5625C0.375 7.40625 0.234375 7.35938 0.140625 7.26562C0.046875 7.17188 0 7.03125 0 6.84375V5.34375C0 5.25 0.046875 5.10938 0.140625 4.96875C0.234375 4.875 0.375 4.78125 0.5625 4.78125H15V1.45312C15 1.21875 15.0938 1.03125 15.3281 0.9375C15.5625 0.84375 15.75 0.890625 15.9375 1.07812L20.625 5.71875C20.7188 5.85938 20.7656 6 20.7656 6.14062C20.7656 6.28125 20.7188 6.42188 20.625 6.51562L15.9375 11.1562Z" fill="#73A8A0"/>
</svg>
