<svg width="18" height="33" viewBox="0 0 18 33" fill="none" xmlns="http://www.w3.org/2000/svg">
<path d="M16.7344 31.9688C16.5938 32.1094 16.3828 32.1797 16.1719 32.1797C15.8906 32.1797 15.75 32.1094 15.6094 31.9688L0.703125 17.0625C0.5625 16.9219 0.492188 16.7812 0.492188 16.5C0.492188 16.2891 0.5625 16.0781 0.703125 15.9375L15.6094 1.03125C15.75 0.890625 15.8906 0.820312 16.1719 0.820312C16.3828 0.820312 16.5938 0.890625 16.7344 1.03125L17.2969 1.59375C17.4375 1.73438 17.5078 1.94531 17.5078 2.15625C17.5078 2.4375 17.4375 2.64844 17.2969 2.78906L3.51562 16.5L17.2969 30.2109C17.4375 30.4219 17.5078 30.6328 17.5078 30.8438C17.5078 31.125 17.4375 31.2656 17.2969 31.4062L16.7344 31.9688Z" fill="#BFDBD7"/>
</svg>
