<svg width="20" height="17" viewBox="0 0 20 17" fill="none" xmlns="http://www.w3.org/2000/svg">
<path d="M13.9531 0.09375C15.5352 0.09375 16.8008 0.585938 17.75 1.5C18.6641 2.41406 19.1562 3.67969 19.1562 5.29688C19.1562 6.31641 18.8047 7.33594 18.1719 8.39062C17.75 9.02344 17.293 9.62109 16.7656 10.1133L10.7891 16.0547C10.5078 16.3008 10.2266 16.4062 9.875 16.4062C9.52344 16.4062 9.20703 16.3008 8.96094 16.0547L2.98438 10.1133C2.52734 9.69141 2.10547 9.19922 1.71875 8.60156C0.945312 7.47656 0.59375 6.38672 0.59375 5.29688C0.59375 3.67969 1.05078 2.41406 2 1.5C2.91406 0.585938 4.17969 0.09375 5.79688 0.09375C7.09766 0.09375 8.46875 0.761719 9.875 2.02734C11.2812 0.761719 12.6172 0.09375 13.9531 0.09375ZM15.957 9.33984C16.5547 8.77734 17.0469 8.14453 17.3984 7.47656C17.8203 6.70312 18.0312 6 18.0312 5.29688C18.0312 4.03125 17.6445 3.01172 16.9414 2.30859C16.2383 1.60547 15.2188 1.21875 13.9531 1.21875C13.1797 1.21875 12.4062 1.53516 11.5625 2.09766C11.0703 2.44922 10.543 2.90625 9.98047 3.46875L9.875 3.57422C9.17188 2.87109 8.53906 2.34375 8.04688 1.99219C7.23828 1.5 6.5 1.21875 5.79688 1.21875C4.49609 1.21875 3.47656 1.60547 2.77344 2.30859C2.07031 3.01172 1.71875 4.03125 1.71875 5.29688C1.71875 6 1.92969 6.73828 2.35156 7.51172C2.70312 8.21484 3.19531 8.8125 3.75781 9.30469L9.76953 15.2461C9.83984 15.3164 9.91016 15.3164 9.98047 15.2461L15.957 9.33984Z" fill="#333333"/>
</svg>
