<svg width="21" height="17" viewBox="0 0 21 17" fill="none" xmlns="http://www.w3.org/2000/svg">
<path d="M16.9336 13.2773C17.2148 13.2773 17.3555 13.418 17.3555 13.6992C17.3555 13.957 17.2148 14.0859 16.9336 14.0859C16.6758 14.0859 16.5469 13.957 16.5469 13.6992C16.5469 13.418 16.6758 13.2773 16.9336 13.2773ZM6.42188 13.2773C6.67969 13.2773 6.80859 13.418 6.80859 13.6992C6.80859 13.957 6.67969 14.0859 6.42188 14.0859C6.16406 14.0859 6.03516 13.957 6.03516 13.6992C6.03516 13.418 6.16406 13.2773 6.42188 13.2773ZM10.2188 13.5586C10.2422 13.3477 10.3477 13.2422 10.5352 13.2422C10.7461 13.2422 10.8633 13.3477 10.8867 13.5586H10.2188ZM14.332 13.2773C14.6133 13.2773 14.7539 13.418 14.7539 13.6992C14.7539 13.957 14.6133 14.0859 14.332 14.0859C14.0742 14.0859 13.9453 13.957 13.9453 13.6992C13.9453 13.418 14.0742 13.2773 14.332 13.2773ZM18.0586 14.1914C18.082 14.1914 18.0938 14.2031 18.0938 14.2266C18.0938 14.2266 18.082 14.2383 18.0586 14.2617C18.0586 14.2852 18.0586 14.2969 18.0586 14.2969C18.0352 14.2969 18.0234 14.2969 18.0234 14.2969C18 14.2969 17.9883 14.2969 17.9883 14.2969C17.9648 14.2969 17.9531 14.2969 17.9531 14.2969C17.9297 14.2969 17.918 14.2969 17.918 14.2969C17.8945 14.2734 17.8828 14.2617 17.8828 14.2617C17.8828 14.2383 17.8828 14.2266 17.8828 14.2266C17.8828 14.2031 17.8828 14.1914 17.8828 14.1914C17.8828 14.168 17.8945 14.1562 17.918 14.1562C17.918 14.1328 17.918 14.1211 17.918 14.1211H17.9531C17.9531 14.1211 17.9648 14.1211 17.9883 14.1211C17.9883 14.1211 18 14.1211 18.0234 14.1211C18.0469 14.1445 18.0586 14.1562 18.0586 14.1562C18.0586 14.1562 18.0586 14.168 18.0586 14.1914ZM17.9883 14.2266C17.9883 14.2266 18 14.2266 18.0234 14.2266C18.0234 14.2266 18.0234 14.2148 18.0234 14.1914C18.0234 14.168 18.0234 14.1562 18.0234 14.1562C18.0234 14.1562 18.0117 14.1562 17.9883 14.1562H17.918V14.2617H17.9531V14.2266L17.9883 14.2617H18.0234L17.9883 14.2266ZM20.625 2.09766V14.4727C20.625 14.9414 20.4609 15.3398 20.1328 15.668C19.8047 15.9961 19.4062 16.1602 18.9375 16.1602H2.0625C1.59375 16.1602 1.19531 15.9961 0.867188 15.668C0.539062 15.3398 0.375 14.9414 0.375 14.4727V2.09766C0.375 1.62891 0.539062 1.23047 0.867188 0.902344C1.19531 0.574219 1.59375 0.410156 2.0625 0.410156H18.9375C19.4062 0.410156 19.8047 0.574219 20.1328 0.902344C20.4609 1.23047 20.625 1.62891 20.625 2.09766ZM4.03125 3.57422C3.09375 4.51172 2.625 5.66016 2.625 7.01953C2.625 8.35547 3.09375 9.50391 4.03125 10.4648C4.99219 11.4023 6.14062 11.8711 7.47656 11.8711C8.46094 11.8711 9.36328 11.6016 10.1836 11.0625C8.89453 10.0078 8.25 8.66016 8.25 7.01953C8.27344 5.35547 8.91797 4.00781 10.1836 2.97656C9.36328 2.41406 8.46094 2.13281 7.47656 2.13281C6.14062 2.13281 4.99219 2.61328 4.03125 3.57422ZM10.5 10.8164C11.7422 9.85547 12.3633 8.58984 12.3633 7.01953C12.3633 5.42578 11.7422 4.14844 10.5 3.1875C9.25781 4.14844 8.63672 5.42578 8.63672 7.01953C8.63672 8.58984 9.25781 9.85547 10.5 10.8164ZM5.50781 13.5234C5.50781 13.1719 5.33203 12.9961 4.98047 12.9961C4.76953 12.9961 4.61719 13.0781 4.52344 13.2422C4.42969 13.0781 4.28906 12.9961 4.10156 12.9961C3.9375 12.9961 3.80859 13.0547 3.71484 13.1719V13.0312H3.43359V14.332H3.71484C3.71484 14.2617 3.71484 14.1797 3.71484 14.0859C3.71484 13.9688 3.71484 13.8867 3.71484 13.8398C3.71484 13.7695 3.71484 13.6992 3.71484 13.6289C3.71484 13.5586 3.72656 13.5117 3.75 13.4883C3.77344 13.4414 3.79688 13.4062 3.82031 13.3828C3.84375 13.3359 3.86719 13.3008 3.89062 13.2773C3.9375 13.2539 3.98438 13.2422 4.03125 13.2422C4.17188 13.2422 4.25391 13.3008 4.27734 13.418C4.32422 13.5352 4.34766 13.7344 4.34766 14.0156C4.34766 14.1562 4.34766 14.2617 4.34766 14.332H4.59375C4.59375 14.2617 4.59375 14.1797 4.59375 14.0859C4.59375 13.9688 4.59375 13.8867 4.59375 13.8398C4.59375 13.7695 4.59375 13.6992 4.59375 13.6289C4.61719 13.5586 4.62891 13.5117 4.62891 13.4883C4.65234 13.4414 4.67578 13.4062 4.69922 13.3828C4.72266 13.3359 4.74609 13.3008 4.76953 13.2773C4.81641 13.2539 4.875 13.2422 4.94531 13.2422C5.0625 13.2422 5.13281 13.3008 5.15625 13.418C5.20312 13.5352 5.22656 13.7344 5.22656 14.0156C5.22656 14.1562 5.22656 14.2617 5.22656 14.332H5.50781V13.5234ZM7.08984 13.0312H6.80859V13.1719C6.69141 13.0547 6.55078 12.9961 6.38672 12.9961C6.19922 12.9961 6.04688 13.0664 5.92969 13.207C5.8125 13.3242 5.75391 13.4883 5.75391 13.6992C5.75391 13.8867 5.8125 14.0508 5.92969 14.1914C6.04688 14.3086 6.19922 14.3672 6.38672 14.3672C6.57422 14.3672 6.71484 14.2969 6.80859 14.1562V14.332H7.08984V13.0312ZM8.49609 13.9453C8.49609 13.7344 8.35547 13.6055 8.07422 13.5586C7.81641 13.5117 7.6875 13.4531 7.6875 13.3828C7.6875 13.2891 7.76953 13.2422 7.93359 13.2422C8.09766 13.2422 8.23828 13.2773 8.35547 13.3477L8.46094 13.1367C8.29688 12.9961 8.07422 12.9492 7.79297 12.9961C7.53516 13.043 7.40625 13.1836 7.40625 13.418C7.40625 13.6055 7.53516 13.7344 7.79297 13.8047C8.07422 13.8516 8.21484 13.8984 8.21484 13.9453C8.21484 14.0625 8.12109 14.1211 7.93359 14.1211C7.74609 14.1211 7.59375 14.0742 7.47656 13.9805L7.33594 14.1914C7.54688 14.332 7.79297 14.3789 8.07422 14.332C8.35547 14.2852 8.49609 14.1562 8.49609 13.9453ZM9.72656 14.2617L9.65625 14.0156C9.375 14.1797 9.23438 14.1328 9.23438 13.875V13.2773H9.69141V13.0312H9.23438V12.6445H8.95312V13.0312H8.67188V13.2773H8.95312V13.875C8.95312 14.1562 9.05859 14.3203 9.26953 14.3672C9.50391 14.3906 9.65625 14.3555 9.72656 14.2617ZM10.2188 13.8047H11.168C11.168 13.2656 10.9688 12.9961 10.5703 12.9961C10.3828 12.9961 10.2305 13.0664 10.1133 13.207C9.99609 13.3242 9.9375 13.4766 9.9375 13.6641C9.9375 14.0156 10.0781 14.2383 10.3594 14.332C10.6641 14.4258 10.9219 14.3672 11.1328 14.1562L10.9922 13.9453C10.8516 14.0859 10.6875 14.1445 10.5 14.1211C10.3359 14.0742 10.2422 13.9688 10.2188 13.8047ZM12.293 13.0312C12.0586 12.9375 11.8828 12.9844 11.7656 13.1719V13.0312H11.4844V14.332H11.7656V13.5938C11.7656 13.4062 11.8242 13.3008 11.9414 13.2773C12.0586 13.2305 12.1406 13.2422 12.1875 13.3125L12.293 13.0312ZM12.8906 14.0859C12.75 14.0156 12.6797 13.8867 12.6797 13.6992C12.6797 13.4883 12.75 13.3594 12.8906 13.3125C13.0547 13.2422 13.2188 13.2656 13.3828 13.3828L13.5234 13.1367C13.3125 12.9727 13.0664 12.9492 12.7852 13.0664C12.5039 13.1602 12.3633 13.3594 12.3633 13.6641C12.3633 13.9922 12.5039 14.2148 12.7852 14.332C13.0898 14.4258 13.3359 14.3789 13.5234 14.1914L13.3828 13.9805C13.2188 14.0977 13.0547 14.1328 12.8906 14.0859ZM15 13.0312H14.7188V13.1719C14.5781 12.9844 14.3672 12.9492 14.0859 13.0664C13.8047 13.1602 13.6641 13.3594 13.6641 13.6641C13.6641 13.9922 13.8047 14.2148 14.0859 14.332C14.3672 14.4258 14.5781 14.3672 14.7188 14.1562V14.332H15V13.0312ZM16.1953 13.0312C15.9609 12.9141 15.7852 12.9609 15.668 13.1719V13.0312H15.3867V14.332H15.668V13.5938C15.668 13.4297 15.7266 13.3242 15.8438 13.2773C15.9609 13.2305 16.0547 13.2422 16.125 13.3125L16.1953 13.0312ZM17.6016 12.5039H17.3203V13.1719C17.1797 12.9844 16.9688 12.9492 16.6875 13.0664C16.4062 13.1602 16.2656 13.3711 16.2656 13.6992C16.2656 14.0039 16.4062 14.2148 16.6875 14.332C16.9922 14.4258 17.2031 14.3672 17.3203 14.1562V14.332H17.6016V12.5039ZM17.8828 9.86719V10.043H17.918V9.86719H17.9531V9.83203H17.8125V9.86719H17.8828ZM18.0938 14.2266C18.0938 14.2031 18.0938 14.1797 18.0938 14.1562C18.0703 14.1328 18.0586 14.1211 18.0586 14.1211C18.0352 14.0977 18.0234 14.0859 18.0234 14.0859C18.0234 14.0859 18.0117 14.0859 17.9883 14.0859C17.9648 14.0859 17.9531 14.0859 17.9531 14.0859C17.9531 14.0859 17.9414 14.0859 17.918 14.0859C17.8945 14.1094 17.8828 14.1211 17.8828 14.1211C17.8594 14.1445 17.8477 14.1562 17.8477 14.1562C17.8477 14.1797 17.8477 14.2031 17.8477 14.2266C17.8477 14.25 17.8477 14.2617 17.8477 14.2617C17.8477 14.2852 17.8594 14.2969 17.8828 14.2969C17.9062 14.3203 17.918 14.332 17.918 14.332C17.9414 14.332 17.9648 14.332 17.9883 14.332C18.0117 14.332 18.0234 14.332 18.0234 14.332C18.0469 14.3086 18.0586 14.2969 18.0586 14.2969C18.082 14.2734 18.0938 14.2617 18.0938 14.2617C18.0938 14.2617 18.0938 14.25 18.0938 14.2266ZM18.2344 9.83203H18.1641L18.1289 9.97266L18.0586 9.83203H18.0234V10.0078V9.86719L18.0938 10.0078H18.1289L18.1641 9.86719V10.0078H18.2344V9.83203ZM18.375 7.01953C18.375 5.66016 17.8945 4.51172 16.9336 3.57422C15.9961 2.61328 14.8594 2.13281 13.5234 2.13281C12.5391 2.13281 11.6367 2.40234 10.8164 2.94141C12.082 3.99609 12.7148 5.35547 12.7148 7.01953C12.7383 8.66016 12.1055 10.0078 10.8164 11.0625C11.6367 11.6016 12.5391 11.8711 13.5234 11.8711C14.8594 11.8711 15.9961 11.4023 16.9336 10.4648C17.8945 9.50391 18.375 8.35547 18.375 7.01953Z" fill="white"/>
</svg>
