<svg width="40" height="40" viewBox="0 0 40 40" fill="none" xmlns="http://www.w3.org/2000/svg">
<circle cx="20" cy="20" r="20" fill="#73A8A0"/>
<path d="M27.25 18.7188C27.5625 18.9062 27.7812 19.1875 27.9062 19.5C28.0312 19.8438 28.0312 20.1875 27.9062 20.5C27.7812 20.8438 27.5625 21.0938 27.25 21.2812L16.25 27.7812C15.9375 27.9688 15.5938 28.0312 15.25 27.9688C14.875 27.9062 14.5938 27.75 14.3438 27.4688C14.0938 27.2188 14 26.875 14 26.5V13.5C14 13.0938 14.125 12.75 14.375 12.5C14.625 12.25 14.9062 12.0938 15.2812 12.0312C15.625 11.9688 15.9375 12.0312 16.25 12.2188L27.25 18.7188ZM15.5 26.1562C15.5 26.25 15.5312 26.3125 15.5938 26.3438C15.6562 26.375 15.7188 26.375 15.7812 26.3438L26.2188 20.1562C26.2812 20.125 26.3125 20.0625 26.3125 20C26.3125 19.9375 26.2812 19.9062 26.2188 19.8438L15.7812 13.6562C15.7188 13.6562 15.6562 13.6562 15.5938 13.6875C15.5312 13.7188 15.5 13.75 15.5 13.8125V26.1562Z" fill="white"/>
</svg>
