<svg width="21" height="17" viewBox="0 0 21 17" fill="none" xmlns="http://www.w3.org/2000/svg">
<path d="M16.8984 7.37109C17.0859 8.26172 17.1914 8.78906 17.2148 8.95312H16.0547L16.6172 7.44141C16.6172 7.44141 16.6289 7.41797 16.6523 7.37109C16.6758 7.30078 16.6992 7.21875 16.7227 7.125C16.7461 7.03125 16.7695 6.96094 16.793 6.91406L16.8984 7.37109ZM20.625 2.0625V14.4375C20.625 14.9062 20.4609 15.3047 20.1328 15.6328C19.8047 15.9609 19.4062 16.125 18.9375 16.125H2.0625C1.59375 16.125 1.19531 15.9609 0.867188 15.6328C0.539062 15.3047 0.375 14.9062 0.375 14.4375V2.0625C0.375 1.59375 0.539062 1.19531 0.867188 0.867188C1.19531 0.539063 1.59375 0.375 2.0625 0.375H18.9375C19.4062 0.375 19.8047 0.539063 20.1328 0.867188C20.4609 1.19531 20.625 1.59375 20.625 2.0625ZM5.71875 10.8867L7.96875 5.4375H6.45703L5.08594 9.16406L4.94531 8.39062L4.45312 5.89453C4.38281 5.61328 4.16016 5.46094 3.78516 5.4375H1.53516L1.5 5.54297C2.03906 5.68359 2.53125 5.88281 2.97656 6.14062L4.24219 10.8867H5.71875ZM9.05859 10.8867L9.9375 5.4375H8.53125L7.65234 10.8867H9.05859ZM13.9805 9.12891C13.9805 8.51953 13.582 8.01562 12.7852 7.61719C12.2461 7.35938 11.9766 7.13672 11.9766 6.94922C12 6.64453 12.2812 6.49219 12.8203 6.49219C13.1719 6.46875 13.5117 6.53906 13.8398 6.70312L13.9805 6.73828L14.1562 5.57812C13.7812 5.41406 13.3594 5.33203 12.8906 5.33203C12.4453 5.33203 12.0352 5.41406 11.6602 5.57812C11.3086 5.71875 11.0273 5.92969 10.8164 6.21094C10.6289 6.49219 10.5352 6.79688 10.5352 7.125C10.5117 7.71094 10.9219 8.21484 11.7656 8.63672C12.2578 8.87109 12.5039 9.09375 12.5039 9.30469C12.4805 9.65625 12.1992 9.83203 11.6602 9.83203C11.2148 9.83203 10.7695 9.73828 10.3242 9.55078L10.1484 9.44531L9.9375 10.6758C10.3359 10.8633 10.8633 10.9688 11.5195 10.9922C12.2461 10.9922 12.832 10.8281 13.2773 10.5C13.7461 10.1484 13.9805 9.69141 13.9805 9.12891ZM18.9375 10.8867L17.8125 5.4375H16.6875C16.3359 5.4375 16.1016 5.58984 15.9844 5.89453L13.875 10.8867H15.3516C15.5156 10.4414 15.6094 10.1719 15.6328 10.0781H17.4609L17.6367 10.8867H18.9375Z" fill="white"/>
</svg>
